<svg width="131" height="130" viewBox="0 0 131 130" fill="none" xmlns="http://www.w3.org/2000/svg">
<path d="M65.4817 130C61.7748 130 58.7073 128.004 58.7073 125.552C58.7073 123.101 61.7378 121.095 65.4817 121.095C69.2256 121.095 72.2555 123.092 72.2555 125.552C72.2555 128.013 69.2256 130 65.4817 130ZM85.1463 125.552C85.1463 123.965 83.1912 122.683 80.7724 122.683C78.3537 122.683 76.4072 123.965 76.4072 125.552C76.4072 127.14 78.363 128.412 80.7724 128.412C83.1819 128.412 85.1463 127.131 85.1463 125.552ZM45.8257 125.552C45.8257 127.131 47.7722 128.412 50.1909 128.412C52.6096 128.412 54.5557 127.131 54.5557 125.552C54.5557 123.974 52.6004 122.683 50.1909 122.683C47.7815 122.683 45.7981 123.965 45.7981 125.552H45.8257ZM37.5409 114.15C30.9335 110.575 26.3001 105.022 24.0945 96.2663H21.1755C9.25795 96.2663 9.29502 67.3425 21.1755 67.3425H24.4837C26.1136 60.4853 29.6177 54.2186 34.6033 49.2453L35.7712 29.8111C36.2068 22.5685 42.3969 22.5685 42.8324 29.8111L43.6202 42.9498C49.8107 39.9228 57.1686 38.3907 65.4998 38.3907C86.5176 38.3907 101.503 48.0104 106.516 67.3425H109.806C121.723 67.3425 121.686 96.2663 109.806 96.2663H106.887C104.681 105.022 100.038 110.584 93.431 114.159C98.3809 116.255 103.068 118.926 107.397 122.117C108.204 122.716 109.168 123.065 110.171 123.121C111.174 123.177 112.172 122.938 113.04 122.432L125.764 115.078C127.355 114.156 128.677 112.83 129.595 111.235C130.514 109.639 130.999 107.83 131 105.988V42.3277C130.999 40.4857 130.514 38.6763 129.595 37.0809C128.677 35.4855 127.355 34.16 125.764 33.2373L70.7361 1.4072C69.1444 0.485383 67.3382 0 65.4998 0C63.6614 0 61.8556 0.485383 60.2639 1.4072L5.24534 33.2373C3.65179 34.1581 2.32797 35.4829 1.40726 37.0785C0.486555 38.6742 0.00124162 40.4846 0 42.3277V105.988C0.00124162 107.831 0.486555 109.642 1.40726 111.237C2.32797 112.833 3.65179 114.158 5.24534 115.078L17.9505 122.432C18.8207 122.933 19.817 123.17 20.8189 123.114C21.8208 123.058 22.7849 122.711 23.5941 122.117C27.9142 118.921 32.5954 116.247 37.5409 114.15ZM97.2306 80.7226C97.2306 106.898 89.5206 107.455 65.4817 107.455C41.4427 107.455 33.7323 106.898 33.7323 80.7226C33.7323 67.3796 41.4427 53.9994 65.4817 53.9994C89.5206 53.9994 97.2306 67.3425 97.2306 80.6855V80.7226ZM45.6592 67.3053C41.0256 71.5487 42.323 84.3068 53.0729 74.4179C57.7157 70.1281 56.4276 57.37 45.6592 67.2682V67.3053Z" fill="#1c59ae"/>
</svg>
